<mxfile host="app.diagrams.net" agent="Mozilla/5.0 (Macintosh; Intel Mac OS X 10_15_7) AppleWebKit/537.36 (KHTML, like Gecko) Chrome/136.0.0.0 Safari/537.36" version="27.0.6">
  <diagram name="Page-1" id="Sq1QqRHBhEGgmif4Jlx_">
    <mxGraphModel grid="1" page="1" gridSize="10" guides="1" tooltips="1" connect="1" arrows="1" fold="1" pageScale="1" pageWidth="850" pageHeight="1100" math="0" shadow="0">
      <root>
        <mxCell id="0" />
        <mxCell id="1" parent="0" />
        <mxCell id="_qnc87mY97x_xuCPpzBz-13" style="edgeStyle=orthogonalEdgeStyle;rounded=0;orthogonalLoop=1;jettySize=auto;html=1;exitX=1;exitY=0.5;exitDx=0;exitDy=0;entryX=0;entryY=0.5;entryDx=0;entryDy=0;" edge="1" parent="1" source="_qnc87mY97x_xuCPpzBz-2" target="_qnc87mY97x_xuCPpzBz-11">
          <mxGeometry relative="1" as="geometry" />
        </mxCell>
        <mxCell id="_qnc87mY97x_xuCPpzBz-2" value="" style="rounded=0;whiteSpace=wrap;html=1;fillColor=light-dark(#FFFFFF,#FF8000);" vertex="1" parent="1">
          <mxGeometry x="-390" y="156.75" width="130" height="80" as="geometry" />
        </mxCell>
        <mxCell id="_qnc87mY97x_xuCPpzBz-4" value="" style="rounded=0;whiteSpace=wrap;html=1;fillColor=light-dark(#FFFFFF,#FF8000);" vertex="1" parent="1">
          <mxGeometry x="-440" y="311.75" width="190" height="210" as="geometry" />
        </mxCell>
        <mxCell id="_qnc87mY97x_xuCPpzBz-5" value="" style="endArrow=classic;html=1;rounded=0;exitX=1;exitY=0.5;exitDx=0;exitDy=0;entryX=0;entryY=0.5;entryDx=0;entryDy=0;" edge="1" parent="1" source="UD-Jtvew1ud5Eq5t138A-9" target="_qnc87mY97x_xuCPpzBz-2">
          <mxGeometry width="50" height="50" relative="1" as="geometry">
            <mxPoint x="-150" y="401.75" as="sourcePoint" />
            <mxPoint x="-100" y="351.75" as="targetPoint" />
            <Array as="points" />
          </mxGeometry>
        </mxCell>
        <mxCell id="_qnc87mY97x_xuCPpzBz-6" value="" style="endArrow=classic;html=1;rounded=0;exitX=1;exitY=0.5;exitDx=0;exitDy=0;entryX=0;entryY=0.5;entryDx=0;entryDy=0;" edge="1" parent="1" source="UD-Jtvew1ud5Eq5t138A-9" target="_qnc87mY97x_xuCPpzBz-4">
          <mxGeometry width="50" height="50" relative="1" as="geometry">
            <mxPoint x="-150" y="401.75" as="sourcePoint" />
            <mxPoint x="-100" y="351.75" as="targetPoint" />
          </mxGeometry>
        </mxCell>
        <mxCell id="_qnc87mY97x_xuCPpzBz-7" value="Is it a Job Posting? (Give Confidence Score)" style="text;html=1;align=center;verticalAlign=middle;whiteSpace=wrap;rounded=0;" vertex="1" parent="1">
          <mxGeometry x="-387.5" y="170.5" width="125" height="52.5" as="geometry" />
        </mxCell>
        <mxCell id="_qnc87mY97x_xuCPpzBz-8" value="Check for rule-based injections, only if clear, escalate to LLM calls to check if there are prompt injections and malicious activities (Give confidence score too)" style="text;html=1;align=center;verticalAlign=middle;whiteSpace=wrap;rounded=0;" vertex="1" parent="1">
          <mxGeometry x="-425" y="369.25" width="160" height="85" as="geometry" />
        </mxCell>
        <mxCell id="_qnc87mY97x_xuCPpzBz-10" value="" style="endArrow=classic;html=1;rounded=0;exitX=1;exitY=0.5;exitDx=0;exitDy=0;" edge="1" parent="1" source="_qnc87mY97x_xuCPpzBz-4" target="_qnc87mY97x_xuCPpzBz-11">
          <mxGeometry width="50" height="50" relative="1" as="geometry">
            <mxPoint x="-150" y="401.75" as="sourcePoint" />
            <mxPoint x="-170" y="301.75" as="targetPoint" />
          </mxGeometry>
        </mxCell>
        <mxCell id="_qnc87mY97x_xuCPpzBz-11" value="" style="shape=process;whiteSpace=wrap;html=1;backgroundOutline=1;fillColor=light-dark(#E51400,#CC0000);fontColor=#ffffff;strokeColor=#B20000;" vertex="1" parent="1">
          <mxGeometry x="-180" y="251.75" width="150" height="160" as="geometry" />
        </mxCell>
        <mxCell id="_qnc87mY97x_xuCPpzBz-12" value="Gate (ensure that it IS a job posting + no prompt injections), otherwise flag accordingly" style="text;html=1;align=center;verticalAlign=middle;whiteSpace=wrap;rounded=0;" vertex="1" parent="1">
          <mxGeometry x="-162.5" y="289.25" width="115" height="77.5" as="geometry" />
        </mxCell>
        <mxCell id="_qnc87mY97x_xuCPpzBz-15" value="" style="endArrow=classic;html=1;rounded=0;exitX=1;exitY=0.5;exitDx=0;exitDy=0;entryX=0;entryY=0.5;entryDx=0;entryDy=0;" edge="1" parent="1" source="_qnc87mY97x_xuCPpzBz-11" target="UD-Jtvew1ud5Eq5t138A-3">
          <mxGeometry width="50" height="50" relative="1" as="geometry">
            <mxPoint x="430" y="380" as="sourcePoint" />
            <mxPoint x="60" y="330" as="targetPoint" />
          </mxGeometry>
        </mxCell>
        <mxCell id="_qnc87mY97x_xuCPpzBz-16" value="" style="shape=cylinder3;whiteSpace=wrap;html=1;boundedLbl=1;backgroundOutline=1;size=15;fillColor=#60a917;fontColor=#ffffff;strokeColor=#2D7600;" vertex="1" parent="1">
          <mxGeometry x="160" width="140" height="150" as="geometry" />
        </mxCell>
        <mxCell id="_qnc87mY97x_xuCPpzBz-17" value="" style="endArrow=classic;html=1;rounded=0;exitX=0.5;exitY=1;exitDx=0;exitDy=0;exitPerimeter=0;entryX=0.5;entryY=0;entryDx=0;entryDy=0;fillColor=#6d8764;strokeColor=#3A5431;" edge="1" parent="1" source="_qnc87mY97x_xuCPpzBz-16" target="_qnc87mY97x_xuCPpzBz-19">
          <mxGeometry width="50" height="50" relative="1" as="geometry">
            <mxPoint x="430" y="380" as="sourcePoint" />
            <mxPoint x="410" y="300" as="targetPoint" />
          </mxGeometry>
        </mxCell>
        <mxCell id="_qnc87mY97x_xuCPpzBz-18" value="Query for list of all Policy Categories and a brief description of each category&amp;nbsp;" style="text;html=1;align=center;verticalAlign=middle;whiteSpace=wrap;rounded=0;fontSize=11;" vertex="1" parent="1">
          <mxGeometry x="350" y="173" width="100" height="50" as="geometry" />
        </mxCell>
        <mxCell id="_qnc87mY97x_xuCPpzBz-49" style="edgeStyle=orthogonalEdgeStyle;rounded=0;orthogonalLoop=1;jettySize=auto;html=1;exitX=0.5;exitY=1;exitDx=0;exitDy=0;entryX=0.5;entryY=1;entryDx=0;entryDy=0;fillColor=#e51400;strokeColor=#B20000;" edge="1" parent="1" source="_qnc87mY97x_xuCPpzBz-19" target="_qnc87mY97x_xuCPpzBz-46">
          <mxGeometry relative="1" as="geometry">
            <Array as="points">
              <mxPoint x="450" y="720" />
              <mxPoint x="1430" y="720" />
            </Array>
          </mxGeometry>
        </mxCell>
        <mxCell id="_qnc87mY97x_xuCPpzBz-19" value="" style="rounded=0;whiteSpace=wrap;html=1;fillColor=light-dark(#FFFFFF,#FF8000);" vertex="1" parent="1">
          <mxGeometry x="350" y="300" width="200" height="170" as="geometry" />
        </mxCell>
        <mxCell id="_qnc87mY97x_xuCPpzBz-20" value="(Orchestrator)&lt;br&gt;Checks through all the Policy Categories and based on their descriptions, assign a confidence score that we need to investigate in a certain policy area (return array of policy areas to investigate, and we investigate if confidence score &amp;gt; threshold)" style="text;html=1;align=center;verticalAlign=middle;whiteSpace=wrap;rounded=0;" vertex="1" parent="1">
          <mxGeometry x="367.5" y="340" width="165" height="85" as="geometry" />
        </mxCell>
        <mxCell id="UD-Jtvew1ud5Eq5t138A-9" value="" style="rounded=0;whiteSpace=wrap;html=1;fillColor=#d80073;fontColor=#ffffff;strokeColor=#A50040;" vertex="1" parent="1">
          <mxGeometry x="-740" y="286.75" width="120" height="60" as="geometry" />
        </mxCell>
        <mxCell id="_qnc87mY97x_xuCPpzBz-27" value="" style="endArrow=none;dashed=1;html=1;dashPattern=1 3;strokeWidth=2;rounded=0;fillColor=#fa6800;strokeColor=#C73500;" edge="1" parent="1">
          <mxGeometry width="50" height="50" relative="1" as="geometry">
            <mxPoint x="550" y="370" as="sourcePoint" />
            <mxPoint x="790" y="370" as="targetPoint" />
            <Array as="points">
              <mxPoint x="740" y="370" />
            </Array>
          </mxGeometry>
        </mxCell>
        <mxCell id="_qnc87mY97x_xuCPpzBz-28" value="" style="endArrow=none;dashed=1;html=1;dashPattern=1 3;strokeWidth=2;rounded=0;fillColor=#fa6800;strokeColor=#C73500;" edge="1" parent="1">
          <mxGeometry width="50" height="50" relative="1" as="geometry">
            <mxPoint x="550" y="400" as="sourcePoint" />
            <mxPoint x="740" y="490" as="targetPoint" />
            <Array as="points" />
          </mxGeometry>
        </mxCell>
        <mxCell id="_qnc87mY97x_xuCPpzBz-29" value="" style="endArrow=none;dashed=1;html=1;dashPattern=1 3;strokeWidth=2;rounded=0;fillColor=#fa6800;strokeColor=#C73500;" edge="1" parent="1">
          <mxGeometry width="50" height="50" relative="1" as="geometry">
            <mxPoint x="550" y="332.5" as="sourcePoint" />
            <mxPoint x="770" y="290" as="targetPoint" />
            <Array as="points" />
          </mxGeometry>
        </mxCell>
        <mxCell id="_qnc87mY97x_xuCPpzBz-30" value="" style="rounded=0;whiteSpace=wrap;html=1;fillColor=#fa6800;fontColor=#000000;strokeColor=#C73500;" vertex="1" parent="1">
          <mxGeometry x="780" y="235" width="130" height="87.5" as="geometry" />
        </mxCell>
        <mxCell id="_qnc87mY97x_xuCPpzBz-31" value="" style="rounded=0;whiteSpace=wrap;html=1;fillColor=#fa6800;fontColor=#000000;strokeColor=#C73500;" vertex="1" parent="1">
          <mxGeometry x="790" y="342.5" width="130" height="87.5" as="geometry" />
        </mxCell>
        <mxCell id="_qnc87mY97x_xuCPpzBz-32" value="" style="rounded=0;whiteSpace=wrap;html=1;fillColor=#fa6800;fontColor=#000000;strokeColor=#C73500;" vertex="1" parent="1">
          <mxGeometry x="740" y="463" width="130" height="87.5" as="geometry" />
        </mxCell>
        <mxCell id="_qnc87mY97x_xuCPpzBz-33" value="" style="endArrow=none;dashed=1;html=1;dashPattern=1 3;strokeWidth=2;rounded=0;exitX=1;exitY=0.5;exitDx=0;exitDy=0;fillColor=#fa6800;strokeColor=#C73500;" edge="1" parent="1" source="_qnc87mY97x_xuCPpzBz-30">
          <mxGeometry width="50" height="50" relative="1" as="geometry">
            <mxPoint x="1090" y="382.5" as="sourcePoint" />
            <mxPoint x="1060" y="330" as="targetPoint" />
            <Array as="points" />
          </mxGeometry>
        </mxCell>
        <mxCell id="_qnc87mY97x_xuCPpzBz-34" value="" style="endArrow=none;dashed=1;html=1;dashPattern=1 3;strokeWidth=2;rounded=0;exitX=1;exitY=0.5;exitDx=0;exitDy=0;fillColor=#fa6800;strokeColor=#C73500;" edge="1" parent="1" source="_qnc87mY97x_xuCPpzBz-31">
          <mxGeometry width="50" height="50" relative="1" as="geometry">
            <mxPoint x="1040" y="562.5" as="sourcePoint" />
            <mxPoint x="1070" y="386" as="targetPoint" />
            <Array as="points" />
          </mxGeometry>
        </mxCell>
        <mxCell id="_qnc87mY97x_xuCPpzBz-35" value="" style="endArrow=none;dashed=1;html=1;dashPattern=1 3;strokeWidth=2;rounded=0;exitX=1;exitY=0.5;exitDx=0;exitDy=0;fillColor=#fa6800;strokeColor=#C73500;" edge="1" parent="1" source="_qnc87mY97x_xuCPpzBz-32">
          <mxGeometry width="50" height="50" relative="1" as="geometry">
            <mxPoint x="1060" y="540" as="sourcePoint" />
            <mxPoint x="1070" y="430" as="targetPoint" />
            <Array as="points" />
          </mxGeometry>
        </mxCell>
        <mxCell id="_qnc87mY97x_xuCPpzBz-36" value="" style="rounded=0;whiteSpace=wrap;html=1;fillColor=#fa6800;fontColor=#000000;strokeColor=#C73500;" vertex="1" parent="1">
          <mxGeometry x="1070" y="310" width="190" height="137.5" as="geometry" />
        </mxCell>
        <mxCell id="_qnc87mY97x_xuCPpzBz-37" value="Aggregator (Collects all Policy Flags and their justifications, or None if no policy violations after investigation)" style="text;html=1;align=center;verticalAlign=middle;whiteSpace=wrap;rounded=0;" vertex="1" parent="1">
          <mxGeometry x="1090" y="352.5" width="150" height="67.5" as="geometry" />
        </mxCell>
        <mxCell id="_qnc87mY97x_xuCPpzBz-38" value="Dynamically call LLMs in Parallel to investigate each policy area" style="text;html=1;align=center;verticalAlign=middle;whiteSpace=wrap;rounded=0;fillColor=#6a00ff;fontColor=#ffffff;strokeColor=#3700CC;" vertex="1" parent="1">
          <mxGeometry x="730" y="134.25" width="210" height="70" as="geometry" />
        </mxCell>
        <mxCell id="_qnc87mY97x_xuCPpzBz-39" value="Investigate Policy Area 1" style="text;html=1;align=center;verticalAlign=middle;whiteSpace=wrap;rounded=0;" vertex="1" parent="1">
          <mxGeometry x="815" y="259.25" width="60" height="30" as="geometry" />
        </mxCell>
        <mxCell id="_qnc87mY97x_xuCPpzBz-40" value="Investigate Policy Area 2" style="text;html=1;align=center;verticalAlign=middle;whiteSpace=wrap;rounded=0;" vertex="1" parent="1">
          <mxGeometry x="825" y="370" width="60" height="30" as="geometry" />
        </mxCell>
        <mxCell id="_qnc87mY97x_xuCPpzBz-41" value="Investigate Policy Area 3" style="text;html=1;align=center;verticalAlign=middle;whiteSpace=wrap;rounded=0;" vertex="1" parent="1">
          <mxGeometry x="775" y="491.75" width="60" height="30" as="geometry" />
        </mxCell>
        <mxCell id="_qnc87mY97x_xuCPpzBz-44" value="Query db for all the Policies of that specific category and load into context windows of specific LLM investigating" style="text;html=1;align=center;verticalAlign=middle;whiteSpace=wrap;rounded=0;" vertex="1" parent="1">
          <mxGeometry x="520" y="126.75" width="110" height="30" as="geometry" />
        </mxCell>
        <mxCell id="_qnc87mY97x_xuCPpzBz-46" value="" style="rounded=0;whiteSpace=wrap;html=1;fillColor=#d80073;strokeColor=#A50040;fontColor=#ffffff;" vertex="1" parent="1">
          <mxGeometry x="1370" y="352.5" width="120" height="60" as="geometry" />
        </mxCell>
        <mxCell id="_qnc87mY97x_xuCPpzBz-47" value="" style="endArrow=classic;html=1;rounded=0;exitX=1;exitY=0.5;exitDx=0;exitDy=0;entryX=0;entryY=0.5;entryDx=0;entryDy=0;" edge="1" parent="1" source="_qnc87mY97x_xuCPpzBz-36" target="_qnc87mY97x_xuCPpzBz-46">
          <mxGeometry width="50" height="50" relative="1" as="geometry">
            <mxPoint x="930" y="440" as="sourcePoint" />
            <mxPoint x="980" y="390" as="targetPoint" />
          </mxGeometry>
        </mxCell>
        <mxCell id="_qnc87mY97x_xuCPpzBz-48" value="Output to Client" style="text;html=1;align=center;verticalAlign=middle;whiteSpace=wrap;rounded=0;" vertex="1" parent="1">
          <mxGeometry x="1400" y="367.5" width="60" height="30" as="geometry" />
        </mxCell>
        <mxCell id="_qnc87mY97x_xuCPpzBz-54" value="If nothing to flag (No investigation needed)" style="text;html=1;align=center;verticalAlign=middle;whiteSpace=wrap;rounded=0;" vertex="1" parent="1">
          <mxGeometry x="460" y="540" width="80" height="70" as="geometry" />
        </mxCell>
        <mxCell id="UD-Jtvew1ud5Eq5t138A-2" style="edgeStyle=orthogonalEdgeStyle;rounded=0;orthogonalLoop=1;jettySize=auto;html=1;" edge="1" parent="1" source="_qnc87mY97x_xuCPpzBz-8" target="_qnc87mY97x_xuCPpzBz-8">
          <mxGeometry relative="1" as="geometry" />
        </mxCell>
        <mxCell id="UD-Jtvew1ud5Eq5t138A-13" style="edgeStyle=orthogonalEdgeStyle;rounded=0;orthogonalLoop=1;jettySize=auto;html=1;entryX=0;entryY=0.5;entryDx=0;entryDy=0;" edge="1" parent="1" source="UD-Jtvew1ud5Eq5t138A-3" target="_qnc87mY97x_xuCPpzBz-19">
          <mxGeometry relative="1" as="geometry" />
        </mxCell>
        <mxCell id="UD-Jtvew1ud5Eq5t138A-3" value="" style="shape=process;whiteSpace=wrap;html=1;backgroundOutline=1;fillColor=#0050ef;fontColor=#ffffff;strokeColor=#001DBC;" vertex="1" parent="1">
          <mxGeometry x="30" y="345.5" width="220" height="189.5" as="geometry" />
        </mxCell>
        <mxCell id="UD-Jtvew1ud5Eq5t138A-4" value="Embed job postings and use RAG to check for if similar postings already in the vector database. If they exist and are very similar (&amp;gt;0.98), then we use the results from the database and return the output directly, skipping redundant LLM calls" style="text;html=1;align=center;verticalAlign=middle;whiteSpace=wrap;rounded=0;" vertex="1" parent="1">
          <mxGeometry x="60" y="356.13" width="160" height="168.25" as="geometry" />
        </mxCell>
        <mxCell id="UD-Jtvew1ud5Eq5t138A-5" value="" style="endArrow=classic;html=1;rounded=0;exitX=0.5;exitY=1;exitDx=0;exitDy=0;exitPerimeter=0;entryX=0.5;entryY=0;entryDx=0;entryDy=0;fillColor=#6d8764;strokeColor=#3A5431;" edge="1" parent="1" source="_qnc87mY97x_xuCPpzBz-16" target="UD-Jtvew1ud5Eq5t138A-3">
          <mxGeometry width="50" height="50" relative="1" as="geometry">
            <mxPoint x="340" y="260" as="sourcePoint" />
            <mxPoint x="492" y="430" as="targetPoint" />
          </mxGeometry>
        </mxCell>
        <mxCell id="UD-Jtvew1ud5Eq5t138A-19" style="edgeStyle=orthogonalEdgeStyle;rounded=0;orthogonalLoop=1;jettySize=auto;html=1;entryX=0;entryY=0.5;entryDx=0;entryDy=0;fillColor=#6d8764;strokeColor=#3A5431;" edge="1" parent="1" source="UD-Jtvew1ud5Eq5t138A-6" target="_qnc87mY97x_xuCPpzBz-31">
          <mxGeometry relative="1" as="geometry">
            <Array as="points">
              <mxPoint x="640" y="80" />
              <mxPoint x="640" y="386" />
            </Array>
          </mxGeometry>
        </mxCell>
        <mxCell id="UD-Jtvew1ud5Eq5t138A-20" style="edgeStyle=orthogonalEdgeStyle;rounded=0;orthogonalLoop=1;jettySize=auto;html=1;entryX=0;entryY=0.5;entryDx=0;entryDy=0;fillColor=#6d8764;strokeColor=#3A5431;" edge="1" parent="1" source="UD-Jtvew1ud5Eq5t138A-6" target="_qnc87mY97x_xuCPpzBz-32">
          <mxGeometry relative="1" as="geometry">
            <Array as="points">
              <mxPoint x="640" y="80" />
              <mxPoint x="640" y="507" />
            </Array>
          </mxGeometry>
        </mxCell>
        <mxCell id="UD-Jtvew1ud5Eq5t138A-21" style="edgeStyle=orthogonalEdgeStyle;rounded=0;orthogonalLoop=1;jettySize=auto;html=1;entryX=0;entryY=0.5;entryDx=0;entryDy=0;fillColor=#6d8764;strokeColor=#3A5431;" edge="1" parent="1" source="UD-Jtvew1ud5Eq5t138A-6" target="_qnc87mY97x_xuCPpzBz-30">
          <mxGeometry relative="1" as="geometry">
            <Array as="points">
              <mxPoint x="640" y="80" />
              <mxPoint x="640" y="279" />
            </Array>
          </mxGeometry>
        </mxCell>
        <mxCell id="UD-Jtvew1ud5Eq5t138A-6" value="PostGres DB (Acts as SQL and Vector DB), stores Policies and Job Posting Embeddings" style="text;html=1;align=center;verticalAlign=middle;whiteSpace=wrap;rounded=0;" vertex="1" parent="1">
          <mxGeometry x="166.25" y="60" width="133.75" height="40" as="geometry" />
        </mxCell>
        <mxCell id="_qnc87mY97x_xuCPpzBz-3" value="INPUT:&amp;nbsp;&lt;div&gt;Job Posting&lt;/div&gt;" style="text;html=1;align=center;verticalAlign=middle;whiteSpace=wrap;rounded=0;" vertex="1" parent="1">
          <mxGeometry x="-725" y="296.75" width="90" height="40" as="geometry" />
        </mxCell>
        <mxCell id="UD-Jtvew1ud5Eq5t138A-12" value="&lt;font style=&quot;font-size: 11px;&quot;&gt;Query for Similar Embeddings (and their classifications)&amp;nbsp;&lt;/font&gt;" style="text;html=1;align=center;verticalAlign=middle;whiteSpace=wrap;rounded=0;" vertex="1" parent="1">
          <mxGeometry x="70" y="164.25" width="130" height="93.25" as="geometry" />
        </mxCell>
        <mxCell id="UD-Jtvew1ud5Eq5t138A-14" style="edgeStyle=orthogonalEdgeStyle;rounded=0;orthogonalLoop=1;jettySize=auto;html=1;entryX=0.821;entryY=1.008;entryDx=0;entryDy=0;entryPerimeter=0;fillColor=#e51400;strokeColor=#B20000;" edge="1" parent="1" source="UD-Jtvew1ud5Eq5t138A-4" target="_qnc87mY97x_xuCPpzBz-46">
          <mxGeometry relative="1" as="geometry">
            <Array as="points">
              <mxPoint x="140" y="800" />
              <mxPoint x="1469" y="800" />
            </Array>
          </mxGeometry>
        </mxCell>
        <mxCell id="UD-Jtvew1ud5Eq5t138A-15" value="If we can use classification from the vector database, return that immediately" style="text;html=1;align=center;verticalAlign=middle;whiteSpace=wrap;rounded=0;" vertex="1" parent="1">
          <mxGeometry x="150" y="602.5" width="100" height="75" as="geometry" />
        </mxCell>
      </root>
    </mxGraphModel>
  </diagram>
</mxfile>
